<?xml version="1.0" standalone="no"?>
<!DOCTYPE svg PUBLIC "-//W3C//DTD SVG 20010904//EN"
 "http://www.w3.org/TR/2001/REC-SVG-20010904/DTD/svg10.dtd">
<svg version="1.0" xmlns="http://www.w3.org/2000/svg"
 width="1245.000000pt" height="1419.000000pt" viewBox="0 0 1245.000000 1419.000000"
 preserveAspectRatio="xMidYMid meet">
<metadata>
Created by potrace 1.10, written by Peter Selinger 2001-2011
</metadata>
<g transform="translate(0.000000,1419.000000) scale(0.100000,-0.100000)"
fill="#21180f" stroke="none">
<path d="M5510 13869 c-36 -4 -110 -11 -165 -14 -55 -3 -118 -11 -140 -16 -22
-5 -78 -16 -125 -24 -90 -14 -128 -23 -255 -61 -44 -13 -103 -30 -132 -39 -28
-8 -60 -15 -70 -15 -10 0 -31 -7 -47 -15 -15 -8 -34 -15 -41 -15 -11 0 -40
-12 -190 -75 -16 -7 -55 -23 -85 -36 -30 -13 -68 -31 -85 -40 -16 -10 -74 -40
-128 -68 -91 -47 -133 -73 -287 -174 -67 -44 -143 -103 -238 -185 -40 -34 -78
-62 -85 -63 -6 0 -359 0 -784 1 l-772 1 -5 -23 c-2 -13 -9 -81 -15 -152 -6
-71 -18 -152 -27 -180 -16 -48 -70 -168 -97 -211 -93 -150 -189 -257 -308
-340 -98 -70 -214 -132 -262 -140 -20 -4 -40 -11 -43 -16 -3 -5 -16 -9 -29 -9
-14 0 -42 -7 -63 -15 -21 -9 -80 -19 -132 -23 l-95 -7 -3 -4447 c-2 -4228 -1
-4448 15 -4457 10 -5 61 -12 113 -16 53 -4 104 -14 115 -21 11 -8 36 -14 57
-14 20 0 39 -4 43 -9 3 -5 20 -13 38 -16 53 -12 177 -79 262 -143 161 -120
318 -333 385 -522 18 -51 39 -204 40 -287 0 -39 4 -74 10 -78 5 -3 353 -5 773
-5 l764 0 39 -26 c21 -15 43 -32 49 -39 5 -6 44 -37 85 -67 41 -31 95 -72 120
-92 25 -20 49 -36 53 -36 5 0 36 -19 70 -43 34 -24 100 -65 147 -91 47 -26 92
-52 100 -56 29 -18 220 -110 226 -110 4 0 36 -13 71 -30 34 -16 69 -30 76 -30
6 0 21 -7 31 -15 11 -8 27 -15 37 -15 9 0 30 -7 45 -15 16 -8 38 -15 48 -15
11 0 47 -9 80 -19 136 -44 196 -61 213 -61 10 -1 36 -8 58 -16 22 -8 76 -19
120 -25 44 -5 94 -14 110 -19 42 -14 364 -40 565 -47 127 -4 217 0 390 16 124
12 238 26 253 31 16 5 59 12 95 16 37 3 94 14 127 24 33 10 78 23 100 29 22 6
85 24 141 41 56 16 109 30 119 30 9 0 33 7 53 16 59 25 95 40 132 56 19 9 51
22 70 31 19 8 59 25 88 37 30 11 68 29 85 39 18 10 82 44 142 76 178 94 454
279 550 369 61 58 30 56 852 56 417 0 763 4 769 8 7 4 14 58 17 142 7 200 42
296 184 507 38 57 161 183 231 236 77 60 195 125 248 138 25 6 47 15 50 20 3
5 23 9 45 9 22 0 50 6 62 14 12 8 61 17 109 21 47 4 96 12 109 19 l22 11 2
4430 c1 2437 -2 4437 -6 4446 -6 12 -31 17 -109 22 -66 4 -108 12 -122 22 -13
8 -35 15 -51 15 -109 0 -360 143 -487 277 -85 90 -97 104 -153 195 -98 158
-128 258 -136 453 l-6 140 -784 2 -784 3 -56 48 c-179 153 -390 292 -626 412
-97 50 -183 90 -190 90 -7 0 -26 6 -42 14 -15 8 -44 21 -63 29 -19 9 -51 23
-72 31 -20 9 -42 16 -50 16 -8 0 -18 4 -24 10 -5 5 -30 14 -54 19 -25 6 -83
21 -130 34 -47 14 -107 30 -135 37 -27 6 -63 16 -80 22 -16 6 -52 14 -80 18
-27 5 -81 14 -120 20 -38 7 -115 16 -170 21 -55 4 -147 13 -205 18 -121 12
-465 12 -560 0z m455 -190 c229 -18 393 -40 438 -58 16 -6 45 -11 65 -11 20 0
55 -7 77 -15 22 -8 54 -14 71 -15 18 0 56 -7 85 -16 118 -35 265 -86 274 -95
5 -5 18 -9 30 -9 24 0 191 -69 323 -134 51 -25 95 -46 98 -46 13 0 240 -143
309 -195 11 -9 56 -41 100 -73 44 -32 109 -84 145 -116 36 -32 75 -62 88 -67
13 -5 337 -9 721 -9 794 0 725 8 736 -90 9 -80 36 -192 51 -215 8 -11 14 -28
14 -38 0 -20 74 -172 113 -234 44 -68 132 -167 203 -228 38 -33 73 -66 77 -72
4 -7 14 -13 21 -13 8 0 18 -6 24 -13 17 -20 260 -137 286 -137 7 0 29 -6 47
-14 19 -7 64 -16 102 -20 37 -4 78 -11 92 -16 l25 -10 -2 -4257 -3 -4257 -40
-7 c-138 -24 -230 -42 -244 -49 -47 -23 -152 -70 -157 -70 -15 0 -113 -67
-199 -136 -81 -65 -120 -107 -224 -241 -36 -48 -121 -210 -121 -233 0 -9 -6
-24 -14 -35 -15 -23 -42 -135 -51 -213 -3 -29 -10 -64 -15 -77 l-10 -25 -713
0 -713 0 -84 -73 c-148 -127 -362 -282 -436 -316 -12 -5 -46 -26 -77 -45 -31
-20 -96 -55 -144 -77 -49 -23 -125 -59 -171 -80 -45 -21 -88 -39 -95 -39 -7 0
-21 -6 -32 -14 -11 -7 -37 -16 -57 -20 -20 -4 -50 -13 -65 -21 -15 -8 -35 -15
-44 -15 -9 0 -19 -3 -23 -7 -10 -10 -117 -43 -141 -43 -11 0 -32 -6 -46 -14
-14 -7 -57 -17 -94 -21 -38 -4 -76 -11 -84 -15 -17 -8 -115 -26 -221 -41 -36
-4 -85 -13 -110 -18 -60 -14 -628 -13 -710 0 -36 6 -87 15 -115 20 -27 5 -82
13 -121 18 -39 4 -76 11 -83 15 -6 4 -46 13 -88 20 -43 8 -91 18 -108 24 -16
6 -59 19 -95 28 -36 10 -69 21 -75 26 -5 4 -18 8 -30 8 -11 1 -38 9 -60 20
-22 11 -46 19 -54 20 -17 0 -182 65 -231 90 -19 10 -70 34 -114 54 -204 94
-495 292 -673 458 l-61 58 -716 0 c-565 0 -717 3 -720 12 -2 7 -14 69 -26 138
-23 127 -33 156 -99 290 -33 68 -155 245 -199 287 -132 130 -324 255 -454 297
-54 17 -169 43 -229 51 -25 4 -51 10 -57 14 -9 5 -12 1033 -12 4251 0 2334 3
4247 7 4251 13 10 139 39 175 39 18 0 46 7 62 15 15 8 32 15 37 15 18 0 194
90 250 127 101 67 186 142 245 216 33 39 69 83 81 96 22 25 82 142 123 241 13
30 29 69 36 85 12 25 44 192 44 225 0 6 9 19 20 30 20 20 33 20 735 20 l715 0
62 54 c218 189 426 332 646 443 139 70 312 143 338 143 11 0 29 7 40 15 10 8
26 15 34 15 8 0 48 14 89 30 40 17 82 30 93 30 11 0 41 6 67 14 53 17 129 33
216 46 33 5 73 13 88 19 16 6 43 11 60 11 18 0 54 7 81 15 27 8 92 16 145 16
53 1 110 5 126 9 46 12 185 11 330 -1z"/>
<path d="M5486 13469 c-10 -7 -55 -15 -100 -20 -198 -21 -211 -24 -243 -49
-18 -14 -30 -31 -28 -37 7 -21 -40 -15 -61 8 -13 14 -26 19 -44 15 -114 -23
-137 -29 -148 -38 -16 -13 -136 -57 -177 -65 -16 -3 -39 -13 -50 -23 -24 -22
-63 -35 -92 -31 -11 1 -24 -2 -27 -8 -7 -10 -95 -54 -133 -65 -14 -4 -23 -15
-23 -26 0 -16 -5 -18 -29 -14 -21 4 -44 -3 -87 -26 -33 -18 -66 -39 -75 -46
-8 -8 -21 -14 -27 -14 -7 0 -12 -5 -12 -10 0 -6 -22 -21 -50 -34 -27 -13 -72
-43 -98 -67 -26 -24 -79 -69 -116 -99 -38 -30 -80 -67 -95 -81 -14 -14 -53
-48 -85 -75 l-59 -49 -91 -3 c-50 -2 -95 -8 -100 -13 -6 -6 -4 -9 7 -9 9 0 17
-4 17 -10 0 -5 -16 -10 -35 -10 -19 0 -35 5 -35 10 0 6 6 10 13 10 9 0 9 2 -1
8 -16 11 -537 15 -704 6 -81 -4 -126 -10 -125 -17 1 -6 -6 -13 -16 -15 -13 -3
-17 1 -15 15 3 17 -6 18 -127 18 -113 0 -130 -2 -127 -16 1 -9 -7 -24 -18 -34
-24 -22 -26 -53 -5 -62 13 -5 13 -8 -5 -20 -20 -14 -28 -43 -11 -43 12 0 23
-29 15 -42 -3 -5 -14 -2 -25 8 -18 16 -20 14 -54 -62 -20 -43 -40 -88 -46 -99
-20 -39 -156 -224 -192 -262 -21 -21 -40 -48 -44 -61 -3 -12 -10 -21 -17 -20
-6 1 -27 -13 -46 -31 -19 -18 -46 -40 -60 -49 -14 -9 -29 -22 -33 -29 -4 -7
-15 -13 -22 -13 -8 0 -15 -4 -15 -9 0 -6 -29 -29 -65 -52 -70 -46 -70 -54 2
-65 42 -6 44 -5 158 86 63 51 115 96 115 101 0 4 23 29 51 56 28 26 72 80 97
118 25 39 56 84 70 100 14 17 36 53 49 80 12 28 27 57 32 65 6 8 26 51 47 95
20 44 41 82 45 83 12 5 11 59 -1 67 -13 8 -13 55 0 55 6 0 13 -7 17 -16 3 -9
12 -13 22 -8 9 3 308 7 664 8 l649 1 21 26 c12 14 30 29 40 32 9 4 17 16 17
27 0 11 8 23 18 27 23 8 115 73 124 88 4 6 25 20 48 30 40 18 60 51 45 74 -3
6 1 11 9 11 9 0 16 -4 16 -10 0 -5 6 -10 14 -10 18 0 116 89 99 90 -7 0 -13 5
-13 11 0 8 15 9 45 5 35 -6 45 -4 45 6 0 8 29 29 65 47 62 32 82 59 55 76 -15
9 -12 25 5 31 9 4 23 -4 34 -17 18 -23 21 -23 57 -10 46 17 134 69 151 89 7 8
25 14 40 14 15 0 38 6 50 14 12 8 33 14 45 14 24 0 79 18 113 36 11 6 33 14
50 18 16 4 33 12 36 17 3 6 37 17 75 25 38 9 89 20 114 26 25 5 52 10 60 10
41 -1 107 23 127 47 l23 26 36 -20 c20 -10 52 -19 72 -18 45 0 144 17 158 26
6 3 105 7 220 8 115 1 221 5 236 9 20 6 34 2 60 -16 41 -29 124 -42 157 -25
18 10 43 52 42 71 0 3 -33 11 -73 19 -95 18 -684 26 -712 10z m-598 -167 c2
-7 -7 -12 -23 -12 -24 0 -26 2 -15 15 14 17 31 16 38 -3z m-383 -152 c4 -6 -8
-10 -29 -10 -20 0 -36 5 -36 10 0 6 13 10 29 10 17 0 33 -4 36 -10z m-461
-239 c3 -5 -1 -14 -8 -20 -16 -13 -32 2 -21 19 8 12 22 13 29 1z m-1574 -331
c0 -5 -9 -10 -20 -10 -11 0 -20 5 -20 10 0 6 9 10 20 10 11 0 20 -4 20 -10z
m395 0 c4 -6 -12 -10 -39 -10 -25 0 -46 5 -46 10 0 6 18 10 39 10 22 0 43 -4
46 -10z m-1155 -880 c-19 -13 -30 -13 -30 0 0 6 10 10 23 10 18 0 19 -2 7 -10z"/>
<path d="M6300 13416 c0 -8 5 -27 10 -41 8 -22 15 -26 43 -24 17 2 42 -3 54
-9 12 -7 39 -12 61 -12 22 0 55 -6 74 -14 19 -8 59 -18 88 -22 30 -4 61 -15
71 -25 11 -11 26 -19 34 -19 8 0 23 -4 33 -9 51 -26 93 -36 144 -36 37 0 58
-4 58 -11 0 -18 31 -26 47 -13 7 7 16 9 20 5 4 -3 -2 -12 -12 -20 -18 -13 -16
-15 25 -35 24 -11 50 -21 57 -21 8 0 16 -7 19 -15 4 -8 14 -15 24 -15 10 0 23
-7 30 -15 13 -16 50 -21 50 -7 0 4 -5 13 -11 19 -8 8 -8 13 1 18 6 4 22 -5 36
-18 23 -24 24 -26 7 -35 -16 -10 -15 -12 11 -22 21 -8 32 -7 43 2 12 10 14 9
11 -5 -2 -11 14 -29 46 -52 51 -36 66 -37 66 -4 0 16 5 19 19 14 27 -8 37 13
15 30 -11 8 -40 22 -66 30 -27 9 -48 23 -48 30 0 8 -11 13 -27 13 -17 0 -40
10 -58 26 -32 28 -66 48 -155 91 -30 14 -63 30 -72 36 -10 5 -29 9 -42 9 -13
0 -37 6 -53 14 -36 18 -173 70 -238 90 -132 40 -158 46 -209 46 -38 0 -66 6
-88 20 -40 24 -118 28 -118 6z m807 -251 c9 -25 -2 -27 -22 -5 -17 18 -17 20
-1 20 9 0 19 -7 23 -15z"/>
<path d="M7488 12947 c-21 -11 -38 -24 -38 -29 0 -8 77 -48 93 -48 5 0 18 -12
29 -26 11 -14 44 -39 73 -55 30 -17 55 -39 58 -51 4 -15 11 -19 27 -15 12 3
19 3 16 0 -8 -8 13 -33 28 -33 11 0 36 45 36 66 0 12 -118 104 -177 139 -18
11 -33 23 -33 27 0 4 -7 8 -15 8 -8 0 -19 9 -25 20 -13 25 -24 24 -72 -3z
m232 -172 c0 -8 -4 -15 -10 -15 -5 0 -10 7 -10 15 0 8 5 15 10 15 6 0 10 -7
10 -15z"/>
<path d="M7790 12673 c0 -5 23 -26 51 -48 28 -22 61 -50 74 -63 l24 -23 654
-3 c359 -2 659 -6 665 -10 7 -4 12 -18 12 -32 0 -14 8 -39 17 -57 10 -18 25
-50 33 -72 8 -22 37 -82 63 -133 40 -78 50 -92 63 -82 12 10 14 8 14 -18 0
-22 4 -29 18 -28 10 0 16 -5 14 -15 -3 -23 23 -81 47 -103 12 -11 21 -24 21
-31 0 -7 27 -35 59 -64 33 -28 63 -60 66 -71 9 -30 80 -63 116 -55 29 7 30 6
17 -14 -12 -20 -9 -25 31 -61 46 -42 71 -50 71 -25 0 18 14 19 39 3 10 -6 26
-8 36 -4 14 5 6 14 -40 41 -32 20 -63 41 -69 48 -6 7 -33 31 -61 52 -27 22
-53 45 -58 52 -4 7 -23 15 -42 19 -20 3 -32 11 -29 18 7 18 -64 96 -81 89 -11
-3 -15 2 -15 17 0 25 -37 90 -51 90 -5 0 -9 6 -9 13 0 8 -18 39 -40 71 -22 31
-40 61 -40 67 0 5 -4 17 -10 27 -5 9 -15 31 -21 47 -10 29 -11 29 -25 10 -14
-18 -14 -17 -9 20 5 31 3 44 -9 54 -9 7 -16 21 -16 30 0 20 -29 102 -41 117
-5 6 -10 21 -12 35 l-4 24 -519 2 c-870 4 -798 1 -845 35 -42 31 -59 34 -96
23 -15 -5 -23 -3 -23 4 0 6 -9 11 -20 11 -11 0 -20 -3 -20 -7z m235 -93 c4 -6
-5 -10 -20 -10 -15 0 -24 4 -20 10 3 6 12 10 20 10 8 0 17 -4 20 -10z m305 0
c0 -5 -23 -10 -51 -10 -31 0 -48 4 -44 10 3 6 26 10 51 10 24 0 44 -4 44 -10z
m100 0 c0 -5 -13 -10 -29 -10 -17 0 -33 5 -36 10 -4 6 8 10 29 10 20 0 36 -4
36 -10z m825 0 c4 -6 -7 -10 -24 -10 -17 0 -31 5 -31 10 0 6 11 10 24 10 14 0
28 -4 31 -10z"/>
<path d="M2494 12325 c-4 -8 -11 -15 -18 -15 -15 0 -106 -92 -106 -107 0 -6
-3 -13 -7 -15 -9 -3 -53 -64 -53 -73 0 -3 -9 -14 -19 -24 -11 -11 -23 -35 -26
-53 -4 -22 -18 -42 -41 -58 -18 -14 -46 -47 -60 -75 -15 -27 -45 -72 -68 -100
-22 -27 -45 -56 -51 -64 -19 -27 -194 -201 -202 -201 -4 0 -21 -18 -37 -40
-17 -22 -36 -40 -43 -40 -7 0 -41 -23 -75 -51 -35 -28 -70 -54 -79 -57 -24
-10 -77 -75 -72 -89 2 -7 12 -9 21 -6 16 6 15 5 0 -14 -10 -11 -18 -25 -18
-33 0 -9 -3 -10 -13 -1 -10 8 -17 7 -25 -1 -15 -15 -15 -33 0 -58 11 -16 9
-23 -10 -40 -24 -23 -27 -37 -13 -72 5 -13 12 -34 15 -48 10 -50 102 -120 157
-120 29 0 23 17 -23 63 -68 67 -78 88 -78 162 0 67 11 103 36 118 8 4 14 15
14 23 0 15 114 104 133 104 6 0 34 24 61 53 51 53 89 81 161 116 22 11 51 29
65 40 37 31 144 101 154 101 4 0 34 23 66 50 32 28 63 50 69 50 13 0 91 79 91
92 0 4 7 8 15 8 9 0 34 18 56 40 22 22 44 40 47 41 4 0 29 27 57 60 27 33 62
68 77 77 15 9 28 19 28 23 0 10 91 74 131 92 19 8 57 21 84 27 28 7 58 19 67
27 14 13 18 12 28 -6 17 -32 38 -26 36 10 0 19 5 34 13 37 11 4 13 -4 8 -35
-6 -34 -3 -43 19 -64 41 -38 67 -79 74 -118 4 -20 11 -44 15 -53 5 -14 2 -18
-14 -18 -12 0 -21 -5 -21 -10 0 -13 22 -52 35 -63 10 -9 2 -7 -58 15 -23 8
-32 7 -44 -5 -15 -14 -19 -14 -45 -1 -16 8 -38 12 -49 9 -17 -6 -20 -3 -17 17
2 15 -2 23 -12 23 -9 0 -16 -11 -18 -29 -3 -23 4 -35 35 -62 34 -30 44 -34
101 -34 67 0 122 20 122 45 0 8 6 15 14 15 20 0 24 9 46 88 18 63 18 70 3 117
-9 28 -20 57 -24 65 -5 8 -13 25 -19 37 -21 50 -107 85 -221 90 -69 4 -88 1
-98 -11 -8 -9 -22 -16 -33 -16 -11 0 -31 -9 -45 -20 -14 -11 -29 -17 -34 -14
-13 8 -51 -21 -143 -111 -47 -46 -106 -100 -131 -120 -25 -21 -45 -45 -45 -55
0 -13 -6 -17 -20 -13 -14 4 -20 0 -20 -11 0 -9 -4 -16 -9 -16 -6 0 -18 -13
-28 -30 -9 -16 -23 -30 -30 -30 -7 0 -40 -28 -75 -62 -106 -105 -222 -208
-236 -208 -23 0 -26 31 -3 46 13 10 21 26 21 45 0 19 5 29 15 29 8 0 15 4 15
8 0 5 22 24 49 42 28 19 56 49 66 69 9 19 29 51 44 71 42 53 121 170 121 179
0 4 9 19 21 32 11 13 23 37 26 53 3 16 14 31 24 33 9 3 23 19 29 36 20 54 26
61 63 80 21 9 37 19 37 22 0 12 -51 3 -56 -10z"/>
<path d="M9040 12334 c0 -3 13 -9 28 -15 16 -5 39 -27 53 -50 13 -22 32 -50
43 -62 10 -12 34 -41 52 -63 27 -32 40 -41 56 -36 18 4 20 2 13 -14 -18 -44
-16 -61 10 -85 14 -13 30 -34 35 -45 5 -12 22 -28 39 -35 24 -11 31 -20 29
-39 -3 -40 27 -84 118 -175 54 -54 84 -92 82 -103 -7 -34 -38 -23 -100 37
-113 108 -178 164 -178 152 0 -6 -7 -11 -16 -11 -14 0 -14 2 -3 16 11 14 -4
32 -116 140 -122 116 -167 146 -195 129 -5 -3 -10 -12 -10 -18 0 -21 250 -260
350 -336 27 -21 35 -23 52 -12 26 16 39 4 14 -14 -10 -8 -15 -18 -12 -23 7
-12 83 -52 98 -52 6 0 30 -16 54 -35 23 -19 45 -35 49 -35 4 0 40 -20 79 -45
40 -25 77 -45 82 -45 6 0 28 -19 50 -42 57 -62 114 -96 114 -69 0 5 -9 13 -20
16 -24 8 -17 25 11 25 25 0 24 17 -2 25 -33 11 -238 206 -324 310 -76 92 -101
115 -132 121 -22 4 -30 11 -26 20 4 10 9 11 18 4 6 -5 15 -7 18 -4 7 7 -10 40
-40 74 -12 14 -39 52 -60 86 -21 33 -51 80 -66 104 -38 56 -144 170 -179 193
-27 16 -68 23 -68 11z"/>
<path d="M8488 12278 c-43 -20 -68 -39 -72 -52 -7 -28 -1 -31 26 -12 12 9 26
16 30 16 14 0 8 -30 -6 -36 -8 -3 -18 -19 -21 -36 -7 -28 -8 -29 -26 -12 -10
9 -19 24 -19 31 0 8 -6 13 -12 11 -18 -6 -28 -81 -21 -168 5 -63 10 -80 32
-103 72 -78 195 -90 257 -24 26 29 34 51 24 68 -7 11 -12 11 -27 -2 -11 -9
-43 -16 -79 -18 -52 -2 -65 1 -87 21 -14 13 -27 34 -28 48 -4 61 2 120 11 120
6 0 27 15 46 34 19 19 47 37 61 41 15 3 45 15 66 25 50 25 107 36 107 22 0 -6
-9 -14 -20 -17 -32 -10 -24 -19 47 -50 36 -16 92 -50 124 -77 32 -26 60 -44
63 -39 3 4 8 27 12 49 5 30 3 42 -6 42 -7 0 -21 11 -32 25 -11 14 -28 25 -38
25 -11 0 -24 9 -30 20 -6 11 -19 20 -29 20 -10 0 -24 7 -31 15 -7 8 -20 15
-29 15 -9 0 -29 7 -45 15 -18 10 -55 15 -105 14 -64 0 -87 -5 -143 -31z"/>
<path d="M10017 11634 c-22 -30 -9 -54 28 -54 12 0 28 -7 35 -15 10 -12 25
-14 59 -10 39 4 42 4 21 -6 -24 -10 -24 -11 -6 -25 25 -18 40 -18 56 1 7 8 24
15 39 15 20 0 23 2 11 10 -8 5 -24 10 -34 10 -10 0 -24 6 -30 14 -11 15 -139
86 -153 86 -4 0 -16 -12 -26 -26z m103 -54 c0 -13 -11 -13 -30 0 -12 8 -11 10
8 10 12 0 22 -4 22 -10z"/>
<path d="M1520 11635 c0 -8 5 -15 10 -15 6 0 10 -5 10 -12 0 -9 -3 -9 -12 0
-7 7 -23 12 -37 12 -29 0 -91 -34 -91 -50 0 -5 -21 -10 -46 -10 -36 0 -51 -6
-73 -28 l-28 -27 3 -375 c2 -206 3 -400 2 -430 -2 -70 -1 -1377 1 -1410 1 -14
-1 -89 -4 -167 -4 -88 -3 -149 4 -160 5 -11 6 -25 1 -33 -5 -8 -5 -21 1 -31 5
-10 6 -20 1 -23 -4 -2 -8 -399 -7 -882 0 -819 1 -878 17 -888 34 -21 41 4 28
95 -14 95 -14 112 -11 334 2 97 7 165 14 173 15 19 16 417 0 458 -7 18 -8 36
-3 44 5 8 5 19 0 25 -5 6 -10 35 -11 65 -3 75 9 344 17 365 4 9 2 42 -4 73
-17 90 -22 161 -11 168 5 3 7 15 4 25 -4 11 -1 26 5 34 6 8 9 19 5 24 -3 6 -8
67 -10 135 -2 98 0 124 10 120 10 -4 12 36 9 192 -2 116 -8 202 -14 208 -13
13 -13 49 0 62 11 11 14 177 4 299 -9 124 -8 163 6 180 10 12 10 18 0 30 -9
11 -11 37 -6 96 5 57 3 85 -5 96 -10 11 -8 30 7 89 17 72 18 77 1 89 -18 13
-24 75 -7 75 15 0 12 30 -6 47 -9 10 -12 22 -8 32 5 9 9 35 10 57 1 23 3 46 6
50 2 5 4 59 3 119 -1 61 2 118 7 127 4 9 1 83 -7 164 l-15 147 35 53 c19 29
35 57 35 63 0 20 23 24 36 6 13 -18 16 -17 67 8 30 14 60 33 67 42 7 8 23 15
36 15 24 0 30 14 18 44 -8 21 -64 22 -64 1z"/>
<path d="M10330 11506 c-10 -28 -50 -37 -50 -12 0 21 -15 27 -41 18 -22 -9
-22 -9 9 -20 30 -10 32 -13 32 -64 0 -29 1 -1830 1 -4003 l0 -3949 -24 -23
c-13 -13 -37 -25 -53 -27 -16 -2 -33 -4 -39 -5 -5 -1 -3 -5 5 -11 8 -5 11 -12
7 -16 -3 -4 -13 -2 -21 5 -15 12 -66 5 -66 -9 0 -4 -11 -11 -25 -14 -25 -7
-110 -60 -120 -77 -4 -5 0 -9 8 -9 8 0 20 -6 26 -14 15 -18 42 -11 113 31 31
18 60 33 65 33 4 0 25 5 46 11 31 8 36 13 32 32 -4 15 0 26 15 35 17 10 20 10
20 -3 0 -23 35 -37 64 -25 l26 10 -1 142 c-1 154 -4 169 -25 161 -9 -3 -14 2
-14 15 0 13 6 19 18 18 16 -1 17 71 19 1369 1 754 -1 1378 -3 1388 -3 9 -12
17 -20 17 -10 0 -14 12 -14 41 0 24 4 38 10 34 6 -3 10 -17 10 -31 0 -14 4
-23 9 -20 11 7 9 1371 -2 1382 -4 4 -7 0 -7 -9 0 -9 -4 -17 -10 -17 -5 0 -10
12 -10 26 0 19 4 25 14 21 11 -5 17 5 22 39 8 56 -5 202 -16 183 -12 -19 -25
14 -15 39 7 16 8 15 15 -3 7 -15 9 -10 9 20 -1 22 -3 34 -6 27 -9 -22 -23 -2
-23 35 0 26 4 34 14 30 20 -8 28 19 20 70 -6 39 -8 42 -20 26 -12 -16 -13 -13
-14 26 0 36 2 42 14 32 11 -10 15 -8 20 6 8 27 4 429 -4 466 l-8 32 -1 -32
c-1 -44 -17 -42 -24 3 -7 45 0 69 18 54 9 -8 14 -5 19 12 9 35 7 111 -4 128
-6 10 -10 11 -10 3 0 -7 -4 -13 -10 -13 -5 0 -10 17 -10 38 1 34 2 35 14 19
14 -18 14 -18 20 0 7 24 6 631 -1 662 l-6 24 -13 -29 c-12 -28 -12 -27 -13 30
-1 48 2 57 14 52 20 -7 30 35 17 71 -7 17 -11 21 -11 11 -1 -10 -5 -18 -11
-18 -6 0 -10 46 -10 118 1 86 3 112 11 99 6 -10 10 -35 8 -55 -1 -20 -1 -48 0
-62 2 -24 3 -24 11 -4 8 21 12 1038 3 1086 -3 18 -9 25 -19 21 -12 -4 -14 15
-14 116 0 81 4 121 11 121 7 0 10 -26 9 -77 -3 -105 -1 -138 8 -129 10 11 12
305 1 312 -5 3 -13 -6 -19 -20z m10 -682 c0 -19 -4 -34 -10 -34 -5 0 -10 18
-10 41 0 24 4 38 10 34 6 -3 10 -22 10 -41z m-8 -526 c-9 -9 -12 -4 -11 23 0
32 1 33 11 11 8 -17 8 -26 0 -34z m8 -3012 c0 -30 -4 -58 -10 -61 -6 -4 -10
17 -10 54 0 34 4 61 10 61 6 0 10 -24 10 -54z m-1 -888 c1 -5 -3 -8 -9 -8 -5
0 -10 12 -9 28 0 24 1 25 9 7 5 -11 9 -23 9 -27z m1 -161 c0 -18 -5 -39 -10
-47 -7 -11 -10 0 -10 38 0 33 4 51 10 47 6 -3 10 -21 10 -38z m-13 -2089 c-2
-13 -4 -3 -4 22 0 25 2 35 4 23 2 -13 2 -33 0 -45z m13 -139 c0 -27 -4 -49
-10 -49 -5 0 -10 25 -10 56 0 34 4 53 10 49 6 -3 10 -28 10 -56z m-8 -421 c-9
-9 -12 -7 -12 12 0 19 3 21 12 12 9 -9 9 -15 0 -24z"/>
<path d="M9939 11373 c-1 -5 -1 -12 0 -17 1 -5 -4 -13 -11 -17 -10 -7 -7 -14
14 -31 14 -13 34 -36 42 -53 9 -16 25 -44 35 -61 37 -61 38 -175 3 -208 -59
-54 -62 -56 -91 -50 -16 4 -51 28 -78 54 -46 45 -50 47 -61 29 -7 -10 -12 -27
-12 -38 0 -23 50 -75 92 -97 27 -14 31 -14 47 0 20 18 48 21 53 5 3 -8 18 -8
48 -2 39 7 46 13 55 41 5 17 15 32 22 32 13 0 17 17 14 53 -1 9 4 17 12 17 18
0 26 27 16 60 -4 14 -7 19 -8 13 -1 -7 -10 -13 -21 -13 -24 0 -27 32 -5 50 8
7 15 25 15 41 0 24 -4 29 -26 29 -21 0 -24 4 -19 20 8 26 -15 67 -64 113 -38
34 -69 47 -72 30z m101 -111 c0 -13 -12 -22 -22 -16 -10 6 -1 24 13 24 5 0 9
-4 9 -8z m-8 -344 c-9 -9 -12 -7 -12 12 0 19 3 21 12 12 9 -9 9 -15 0 -24z"/>
<path d="M1770 11015 c-14 -16 -41 -45 -60 -64 -20 -21 -29 -36 -22 -39 7 -2
12 -10 12 -17 0 -8 4 -16 10 -20 14 -9 80 22 80 38 0 8 9 22 20 32 23 21 28
60 6 52 -10 -4 -16 2 -18 21 l-3 27 -25 -30z m-5 -85 c-13 -24 -19 -29 -30
-20 -18 15 -7 50 16 50 11 0 19 6 20 13 0 9 2 9 5 0 3 -6 -2 -26 -11 -43z"/>
<path d="M6540 10865 c-14 -8 -35 -14 -47 -15 -13 0 -40 -6 -60 -14 -64 -22
-145 -44 -213 -57 -79 -15 -90 -22 -90 -65 0 -29 5 -36 40 -54 21 -11 45 -20
53 -20 7 0 26 -14 43 -31 l29 -30 0 -684 c0 -678 0 -684 -21 -712 -13 -17 -38
-33 -65 -41 -65 -19 -74 -26 -77 -60 -6 -60 4 -62 365 -62 321 0 322 0 337 22
20 28 21 62 2 77 -7 6 -35 15 -61 20 -59 11 -85 36 -96 92 -4 24 -8 400 -9
835 0 601 -3 793 -12 802 -16 16 -87 15 -118 -3z"/>
<path d="M2633 10809 c-7 -7 -13 -26 -13 -41 0 -22 7 -31 28 -39 97 -40 116
-56 139 -123 17 -47 18 -103 18 -696 0 -588 -2 -648 -17 -681 -24 -51 -72 -89
-112 -89 -17 0 -37 -5 -44 -12 -14 -14 -16 -67 -4 -86 11 -17 867 -12 991 6
96 14 240 62 352 117 78 38 200 136 246 197 67 90 127 216 144 300 45 236 46
283 9 498 -34 198 -136 361 -305 489 -81 61 -140 88 -305 137 l-95 29 -510 3
c-399 2 -513 0 -522 -9z m822 -133 c71 -14 128 -32 155 -47 8 -5 24 -13 35
-18 99 -44 253 -278 276 -421 4 -25 12 -74 18 -110 16 -99 14 -337 -4 -396 -8
-27 -15 -61 -15 -76 0 -57 -76 -205 -139 -271 -45 -48 -131 -101 -208 -128
-77 -28 -322 -39 -342 -16 -9 12 -12 186 -12 743 0 678 2 730 18 741 23 17
131 16 218 -1z"/>
<path d="M7380 10311 c-133 -36 -278 -130 -351 -227 -58 -77 -83 -125 -114
-215 -22 -66 -25 -90 -25 -219 0 -124 4 -156 24 -220 42 -136 100 -229 179
-290 29 -22 58 -45 65 -51 31 -26 130 -60 200 -70 46 -7 127 -9 202 -4 123 6
127 7 219 52 71 35 112 63 162 113 73 71 89 107 69 146 -17 31 -50 31 -98 0
-110 -72 -310 -87 -424 -32 -69 33 -129 98 -168 181 -39 85 -41 98 -41 273 0
182 13 244 66 328 19 30 49 63 66 73 72 44 183 33 242 -24 37 -36 107 -171
107 -207 0 -39 27 -68 63 -68 46 0 128 41 161 81 26 31 28 38 24 99 -10 140
-110 239 -284 284 -84 22 -258 20 -344 -3z"/>
<path d="M8645 10319 c-16 -6 -53 -17 -81 -26 -77 -24 -211 -119 -267 -188
-119 -147 -165 -325 -146 -565 12 -158 59 -268 154 -364 68 -69 129 -108 210
-137 46 -16 83 -20 209 -20 162 0 200 8 296 56 117 59 240 187 240 250 0 32
-24 75 -41 75 -6 0 -35 -18 -66 -39 -30 -22 -87 -53 -126 -68 -60 -23 -87 -28
-163 -28 -84 0 -96 3 -160 35 -55 28 -76 46 -111 95 -23 33 -51 87 -62 120
-26 81 -37 181 -21 200 11 13 68 15 374 15 268 0 365 3 374 12 8 8 12 46 12
105 0 73 -5 109 -24 161 -76 218 -230 323 -470 321 -55 0 -114 -5 -131 -10z
m178 -145 c18 -9 39 -24 48 -34 56 -57 99 -226 67 -258 -18 -18 -402 -17 -417
2 -13 15 -1 93 23 151 23 54 73 113 115 135 45 24 121 26 164 4z"/>
<path d="M4796 10284 c-49 -13 -136 -28 -194 -32 -84 -7 -108 -13 -119 -28
-30 -40 -2 -94 48 -94 32 0 67 -25 82 -59 8 -17 13 -153 17 -416 l6 -390 26
-55 c35 -75 85 -129 149 -164 48 -26 66 -29 169 -34 183 -7 264 17 392 114 89
67 88 67 88 -10 0 -90 16 -107 97 -99 32 2 85 11 118 18 33 8 114 19 180 26
131 13 150 19 160 49 10 32 -18 67 -62 75 -52 9 -100 48 -115 93 -9 27 -14
172 -18 532 l-5 495 -31 3 c-17 2 -83 -11 -147 -28 -64 -16 -140 -30 -169 -30
-78 0 -136 -27 -148 -69 -11 -42 11 -81 46 -81 13 0 38 -13 56 -29 l33 -29 3
-339 c2 -186 0 -348 -3 -361 -7 -28 -90 -67 -191 -89 -67 -14 -75 -14 -117 2
-58 22 -104 67 -117 113 -6 23 -10 207 -10 467 0 498 4 476 -83 474 -29 -1
-92 -12 -141 -25z"/>
<path d="M6762 8704 c-50 -22 -219 -65 -297 -76 -90 -13 -122 -29 -130 -68
-10 -46 13 -73 75 -87 65 -16 84 -32 104 -91 14 -39 16 -130 15 -676 0 -763 9
-708 -134 -763 -57 -21 -69 -49 -36 -82 20 -20 31 -21 359 -21 250 0 341 3
350 12 7 7 12 25 12 40 0 30 -1 30 -93 63 -88 31 -81 -34 -87 913 -4 726 -7
834 -20 842 -21 14 -80 11 -118 -6z"/>
<path d="M1928 8688 c-36 -29 -29 -108 10 -108 9 0 40 -11 68 -24 45 -21 55
-32 80 -82 l29 -59 0 -655 c0 -360 -4 -672 -8 -693 -12 -55 -60 -106 -109
-113 -22 -4 -46 -13 -54 -21 -19 -20 -18 -58 3 -79 16 -15 55 -16 523 -11 538
6 568 9 720 61 135 46 234 135 301 271 41 81 51 212 24 301 -36 118 -134 232
-243 284 -97 47 -125 58 -147 62 -12 2 -20 11 -20 23 0 14 11 22 42 31 94 28
205 123 247 213 17 38 21 65 21 161 0 105 -2 120 -28 175 -49 104 -131 171
-267 217 -165 57 -179 58 -697 58 -368 0 -483 -3 -495 -12z m781 -139 c104
-16 182 -65 233 -147 18 -29 22 -55 26 -143 7 -164 -3 -231 -42 -282 -17 -23
-52 -53 -76 -67 -40 -22 -59 -25 -174 -29 -116 -3 -131 -1 -143 15 -10 14 -13
87 -13 323 0 348 -2 339 78 339 26 0 76 -4 111 -9z m94 -839 c79 -12 134 -37
190 -88 59 -55 79 -108 85 -232 6 -140 -13 -210 -79 -283 -72 -81 -160 -111
-360 -123 -71 -4 -90 -2 -103 11 -14 14 -16 57 -16 355 0 294 2 341 16 354 18
19 157 22 267 6z"/>
<path d="M7665 8660 c-51 -21 -134 -112 -262 -285 -66 -90 -6 -103 177 -41 41
14 82 26 91 26 9 0 22 7 29 15 7 8 23 15 35 15 31 0 107 35 129 59 43 48 -3
186 -71 212 -30 11 -101 11 -128 -1z"/>
<path d="M5935 8167 c-91 -30 -152 -80 -231 -187 -40 -55 -61 -76 -66 -67 -5
6 -7 61 -6 120 2 120 -1 127 -59 127 -18 0 -59 -9 -90 -19 -105 -36 -254 -71
-297 -71 -61 0 -105 -18 -112 -45 -9 -36 10 -59 64 -78 92 -33 87 -5 90 -461
2 -220 0 -415 -3 -433 -9 -48 -50 -91 -93 -99 -70 -12 -97 -67 -49 -99 21 -13
74 -15 388 -13 l364 3 3 38 c2 24 -1 38 -10 41 -60 16 -126 42 -141 55 -47 40
-51 69 -55 388 -4 338 -6 327 71 411 80 86 162 117 206 77 12 -10 21 -22 21
-27 0 -5 16 -34 36 -64 34 -55 36 -56 72 -49 59 10 142 57 178 99 43 50 58
103 49 175 -13 113 -94 180 -222 187 -40 2 -85 -2 -108 -9z"/>
<path d="M4230 8156 c-30 -7 -78 -24 -107 -38 -229 -116 -346 -275 -395 -538
-13 -71 -4 -254 15 -305 9 -22 18 -52 21 -67 22 -100 119 -231 223 -302 154
-104 482 -112 676 -16 95 47 227 189 227 245 0 26 -36 75 -54 75 -7 0 -21 -10
-32 -21 -10 -12 -28 -25 -39 -30 -11 -5 -38 -20 -60 -32 -112 -64 -279 -76
-378 -28 -101 49 -172 150 -203 286 -12 52 -19 151 -11 157 1 1 180 5 397 8
l395 5 13 27 c11 23 10 45 -1 130 -32 229 -170 397 -365 444 -70 16 -247 16
-322 0z m221 -155 c26 -16 57 -47 71 -72 27 -46 56 -183 45 -213 -6 -15 -28
-16 -224 -14 l-218 3 2 45 c5 97 79 221 155 259 61 30 114 27 169 -8z"/>
<path d="M8913 8158 c-65 -14 -155 -67 -231 -135 -38 -34 -72 -59 -76 -56 -3
4 -6 41 -6 84 0 73 -2 80 -25 95 -29 19 -116 13 -163 -12 -15 -7 -41 -14 -58
-14 -17 0 -44 -4 -60 -9 -24 -7 -112 -27 -211 -47 -28 -5 -41 -56 -21 -86 8
-11 34 -28 58 -37 81 -29 80 -25 80 -491 0 -474 3 -456 -95 -505 -66 -33 -79
-59 -47 -88 17 -16 50 -17 358 -15 l338 3 15 27 c15 25 14 29 -8 52 -13 14
-40 29 -60 32 -46 8 -60 20 -82 69 -17 36 -19 74 -19 413 l0 373 24 24 c36 36
103 66 170 76 139 20 215 -17 236 -114 17 -79 10 -753 -9 -789 -8 -15 -37 -39
-68 -55 -53 -27 -54 -29 -51 -68 l3 -40 342 -3 342 -2 16 24 c24 36 6 60 -66
88 -109 41 -103 14 -110 491 -6 404 -10 454 -43 529 -36 84 -138 165 -234 186
-62 14 -178 14 -239 0z"/>
<path d="M7595 8141 c-68 -33 -176 -68 -265 -86 -47 -9 -91 -20 -99 -24 -44
-22 -38 -88 8 -97 16 -4 44 -19 63 -34 l33 -28 3 -378 c2 -209 0 -403 -3 -433
-8 -61 -35 -95 -87 -105 -59 -12 -82 -51 -58 -97 10 -18 25 -19 355 -19 299 0
346 2 359 16 33 33 16 66 -39 78 -50 11 -93 43 -115 85 -19 39 -20 56 -20 579
0 405 -3 541 -12 550 -18 18 -78 14 -123 -7z"/>
<path d="M1258 7063 c-2 -5 -3 -154 -1 -333 1 -179 2 -341 2 -360 -2 -91 -2
-121 -2 -205 -1 -49 1 -135 3 -190 2 -55 4 -122 4 -150 -1 -27 -3 -260 -7
-517 -4 -377 -3 -470 8 -485 13 -17 14 -17 34 1 16 14 21 31 21 68 0 27 -4 57
-8 66 -5 9 -5 73 -1 142 6 103 5 128 -7 141 -11 13 -12 22 -4 45 8 20 8 30 1
32 -14 5 -14 42 -1 42 13 0 13 33 0 46 -6 6 -7 35 -1 79 5 39 5 77 1 85 -5 8
-5 83 -1 165 4 83 4 160 0 171 -4 12 -5 64 -2 116 3 56 2 102 -4 114 -7 13 -7
39 -1 79 12 73 11 124 -3 141 -7 9 -7 24 0 52 6 22 11 97 10 168 -1 71 -1 140
0 154 1 14 2 77 2 140 0 63 4 130 10 149 9 26 8 35 -2 42 -17 11 -47 12 -51 2z"/>
<path d="M7930 6280 c-53 -21 -60 -38 -25 -70 l25 -23 0 -219 c0 -205 -1 -219
-20 -238 -40 -40 -27 -50 59 -50 44 0 82 4 85 9 3 4 -6 19 -19 31 -24 22 -25
30 -25 133 0 107 0 109 29 138 37 36 83 39 105 7 12 -17 16 -50 16 -140 0
-106 -2 -120 -20 -135 -39 -34 -26 -43 64 -43 84 0 117 13 83 32 -44 24 -47
34 -47 177 0 124 -2 141 -20 164 -30 38 -79 44 -133 18 -76 -37 -77 -36 -77
92 0 75 -4 117 -12 125 -14 14 -11 15 -68 -8z"/>
<path d="M9224 6280 c-56 -25 -61 -36 -29 -70 l27 -28 3 -187 c3 -204 -3 -253
-34 -274 -40 -26 -26 -41 42 -41 34 0 72 -3 84 -6 32 -9 41 21 15 49 -37 41
-36 137 2 137 8 0 40 -38 72 -85 47 -70 63 -86 89 -91 78 -14 109 16 53 51
-18 11 -52 53 -76 93 -24 39 -48 72 -53 72 -37 0 56 117 119 149 38 20 15 31
-63 31 -69 0 -99 -10 -75 -25 11 -7 14 -65 3 -65 -5 0 -19 -16 -32 -35 -13
-19 -32 -35 -42 -35 -22 0 -20 -12 -19 197 1 140 -7 184 -33 182 -7 0 -31 -9
-53 -19z"/>
<path d="M2133 6277 c-2 -4 9 -23 26 -43 l31 -35 0 -212 c0 -117 -3 -222 -6
-234 -3 -12 -15 -25 -25 -28 -10 -4 -19 -15 -19 -25 0 -18 11 -19 148 -22 81
-2 170 -1 197 2 l50 5 6 50 c3 28 9 62 13 78 13 44 -13 33 -67 -28 l-48 -55
-63 0 c-42 0 -67 5 -75 14 -8 9 -11 50 -9 117 l3 104 54 -1 c44 0 57 -4 69
-22 19 -29 48 -28 56 1 9 36 7 115 -4 122 -6 4 -27 -8 -46 -25 -32 -28 -41
-31 -78 -25 -22 4 -44 9 -48 12 -13 7 -9 178 4 191 7 7 34 12 61 12 46 0 52
-3 93 -47 51 -55 64 -50 64 27 0 76 4 74 -200 75 -100 0 -184 -4 -187 -8z"/>
<path d="M6382 6268 c-29 -11 -72 -38 -96 -60 -36 -31 -49 -52 -70 -116 -32
-94 -32 -133 -4 -225 27 -89 75 -144 159 -182 52 -23 71 -27 134 -23 59 3 81
9 121 34 l49 30 3 74 c3 101 8 119 38 131 22 8 24 12 14 24 -9 11 -33 14 -96
13 -108 -2 -116 -7 -77 -52 28 -31 31 -42 32 -96 0 -47 -4 -65 -20 -81 -23
-23 -76 -25 -132 -5 -54 20 -76 42 -108 114 -71 156 -8 353 119 378 52 10 84
-5 139 -64 61 -66 76 -62 66 16 -8 68 -20 83 -79 94 -106 19 -138 18 -192 -4z"/>
<path d="M3227 6242 c-33 -37 -12 -102 33 -102 18 0 60 43 60 62 0 14 -48 58
-63 58 -8 0 -21 -8 -30 -18z"/>
<path d="M5377 6242 c-22 -24 -21 -65 1 -85 24 -22 44 -21 70 2 29 24 28 65 0
85 -29 21 -51 20 -71 -2z"/>
<path d="M3838 6204 c-27 -14 -35 -31 -40 -89 -2 -22 -9 -31 -27 -35 -36 -8
-37 -28 -2 -47 l31 -18 0 -143 0 -144 31 -29 c35 -33 74 -37 120 -13 41 21 36
50 -7 46 -39 -4 -63 19 -66 61 -5 99 -3 204 5 220 4 9 18 17 30 17 30 0 62 24
53 38 -4 7 -23 12 -42 12 -41 0 -53 22 -46 86 5 49 -4 57 -40 38z"/>
<path d="M2691 6076 c-52 -13 -76 -41 -48 -57 15 -9 17 -27 17 -145 0 -128 -1
-137 -22 -154 -18 -14 -20 -20 -10 -33 9 -11 28 -13 85 -9 86 5 98 14 69 45
-20 21 -22 34 -22 139 0 101 2 117 19 132 15 14 24 15 40 6 12 -6 21 -17 21
-25 0 -40 46 -25 65 22 14 32 13 37 -6 64 -24 34 -49 36 -98 10 -33 -18 -35
-18 -50 -1 -14 16 -21 17 -60 6z"/>
<path d="M3505 6080 c-17 -5 -45 -24 -63 -41 -36 -36 -42 -80 -16 -117 17 -25
86 -72 105 -72 6 0 29 -14 50 -31 47 -37 51 -68 13 -98 -39 -31 -62 -26 -106
20 -42 44 -63 46 -74 4 -7 -30 5 -48 50 -69 70 -33 160 -14 209 43 38 45 44
77 22 117 -17 32 -107 94 -137 94 -24 1 -58 38 -58 63 0 60 74 76 120 26 33
-36 60 -34 60 5 0 16 -9 32 -26 42 -30 20 -107 27 -149 14z"/>
<path d="M4475 6083 c-10 -3 -29 -11 -40 -19 -18 -12 -24 -12 -41 1 -26 20
-58 19 -105 -5 l-40 -21 25 -32 c25 -34 31 -73 28 -194 -2 -48 -7 -68 -22 -83
-40 -40 -27 -50 60 -50 72 0 80 2 80 19 0 10 -7 21 -15 25 -12 4 -15 28 -15
130 l0 125 29 20 c35 25 64 27 85 5 23 -22 24 -272 1 -280 -8 -4 -15 -15 -15
-25 0 -17 8 -19 80 -19 87 0 100 10 60 50 -17 17 -20 33 -20 123 l0 103 33 32
c36 35 76 42 101 16 13 -12 16 -40 16 -138 0 -117 -1 -123 -25 -146 -13 -12
-22 -27 -19 -31 8 -14 172 -11 180 3 4 6 -4 19 -19 30 -27 20 -27 21 -27 149
0 139 -9 173 -52 203 -42 30 -82 21 -160 -36 -15 -10 -22 -8 -46 15 -29 28
-79 41 -117 30z"/>
<path d="M5069 6080 c-69 -21 -109 -70 -129 -160 -31 -143 81 -284 199 -250
39 11 96 53 111 81 18 32 -15 35 -51 5 -44 -38 -97 -36 -137 5 -33 34 -47 81
-32 110 11 19 23 21 169 23 57 1 70 19 51 76 -31 94 -99 135 -181 110z m57
-38 c16 -10 55 -93 48 -103 -3 -5 -36 -9 -75 -9 l-69 0 0 29 c0 18 11 40 29
60 29 31 46 37 67 23z"/>
<path d="M5752 6067 c-41 -21 -44 -21 -56 -4 -17 23 -58 22 -108 -4 l-40 -21
32 -33 32 -33 -4 -116 c-3 -110 -4 -118 -27 -135 -13 -10 -21 -23 -17 -30 9
-14 162 -15 171 0 4 5 -5 21 -19 34 -25 23 -26 29 -26 134 l0 109 31 26 c18
15 43 26 60 26 44 0 59 -44 59 -170 0 -87 -3 -103 -20 -120 -40 -40 -28 -50
65 -50 91 0 105 9 65 45 -18 16 -20 31 -20 153 0 107 -3 140 -17 162 -31 54
-89 63 -161 27z"/>
<path d="M6899 6081 c-39 -13 -83 -55 -108 -107 -21 -40 -22 -54 -16 -126 6
-70 11 -84 39 -116 41 -46 103 -74 147 -65 63 12 140 77 123 104 -9 15 -24 10
-56 -16 -60 -51 -145 -17 -170 67 -17 57 1 68 113 68 114 0 119 2 119 55 0 37
-6 50 -42 88 -46 49 -95 64 -149 48z m94 -90 c27 -59 25 -61 -58 -61 -74 0
-75 0 -75 26 0 16 13 39 34 60 30 30 37 33 58 23 12 -5 31 -27 41 -48z"/>
<path d="M7255 6082 c-51 -18 -95 -70 -95 -113 0 -40 41 -82 125 -128 76 -42
94 -66 76 -100 -26 -49 -121 -40 -141 14 -11 29 -22 31 -44 9 -70 -70 88 -138
188 -81 51 29 78 66 79 109 1 51 -26 86 -91 117 -115 54 -134 79 -92 121 31
31 64 25 98 -16 l30 -36 21 21 c26 26 27 43 4 64 -20 17 -126 30 -158 19z"/>
<path d="M7644 6079 c-17 -5 -52 -31 -77 -58 l-45 -48 1 -94 c2 -109 21 -151
84 -186 64 -36 101 -37 157 -6 77 44 95 95 21 60 -58 -28 -92 -22 -136 22 -39
39 -39 39 -39 120 0 103 31 161 85 161 22 0 65 -38 65 -58 0 -10 30 -32 44
-32 3 0 13 11 22 25 15 23 15 27 -1 51 -30 47 -106 65 -181 43z"/>
<path d="M8464 6080 c-45 -14 -93 -68 -115 -130 -26 -77 -24 -125 9 -185 51
-93 155 -123 240 -68 69 45 71 95 2 55 -73 -42 -134 -22 -164 54 -29 71 -21
78 110 85 60 4 110 7 110 8 21 20 -15 119 -57 158 -28 26 -91 36 -135 23z m75
-51 c18 -20 33 -76 24 -91 -2 -5 -32 -8 -65 -8 l-61 0 6 42 c6 43 34 78 63 78
7 0 22 -9 33 -21z"/>
<path d="M8785 6077 c-16 -7 -41 -18 -54 -26 l-24 -13 27 -24 c25 -24 26 -28
26 -148 0 -120 0 -123 -27 -146 -25 -22 -26 -23 -7 -37 10 -7 25 -11 32 -8 8
3 40 5 73 5 66 0 78 15 34 44 -24 16 -25 20 -25 135 l0 119 34 21 c40 25 79
27 100 5 13 -12 16 -40 16 -143 0 -122 -1 -129 -22 -144 -35 -23 -12 -36 70
-38 89 -2 111 12 70 43 -28 20 -28 20 -28 141 0 140 -11 191 -46 213 -34 23
-105 12 -149 -22 -37 -28 -35 -29 -51 24 -4 14 -9 14 -49 -1z"/>
<path d="M3213 6062 c-48 -18 -51 -24 -24 -51 25 -25 34 -87 29 -191 -3 -72
-6 -83 -27 -99 -39 -30 -18 -41 75 -41 66 0 84 3 84 14 0 8 -10 22 -22 31 -22
15 -23 23 -28 183 -6 189 -4 186 -87 154z"/>
<path d="M5386 6071 c-4 -5 -20 -12 -36 -16 -34 -7 -39 -29 -11 -44 26 -15 34
-52 32 -156 -3 -110 -6 -124 -38 -136 -48 -18 -20 -34 67 -37 91 -3 114 6 87
36 -13 15 -17 47 -20 187 l-3 170 -36 3 c-20 2 -39 -1 -42 -7z"/>
<path d="M2395 5053 c9 -39 42 -68 60 -53 18 15 31 -6 14 -26 -10 -12 -6 -21
22 -50 19 -20 44 -40 57 -45 12 -5 22 -16 22 -25 0 -12 6 -14 31 -9 29 7 31 5
26 -14 -7 -27 16 -39 38 -21 12 10 16 8 25 -14 6 -16 17 -26 29 -26 11 0 24
-7 29 -17 7 -12 18 -15 46 -10 27 4 36 2 36 -9 0 -8 10 -14 25 -14 32 0 32 18
1 30 -14 5 -33 21 -42 35 -24 36 -139 146 -177 169 -18 10 -43 26 -57 36 -14
9 -37 20 -50 25 -38 11 -109 46 -116 56 -12 21 -26 8 -19 -18z m223 -143 c-7
-11 -18 -20 -25 -20 -18 0 -16 10 5 26 25 20 34 17 20 -6z"/>
<path d="M2880 5046 c0 -9 7 -16 16 -16 9 0 14 5 12 12 -6 18 -28 21 -28 4z"/>
<path d="M8691 5033 c-7 -17 -19 -34 -27 -37 -8 -3 -14 -15 -14 -28 0 -17 -3
-19 -12 -10 -22 22 -45 12 -96 -44 -33 -36 -49 -61 -45 -71 4 -11 2 -14 -5 -9
-15 9 -62 -22 -62 -40 0 -8 -13 -33 -30 -56 -34 -47 -37 -66 -12 -75 9 -4 20
-11 23 -16 4 -5 16 -6 27 -3 17 6 20 13 16 35 -7 33 10 49 32 30 22 -18 58 2
87 48 13 21 32 44 41 52 19 16 20 34 4 61 -7 10 -8 23 -4 27 5 4 11 2 13 -5
11 -29 87 114 80 150 -4 22 -5 21 -16 -9z"/>
<path d="M9161 5036 c-44 -12 -61 -28 -42 -41 7 -4 5 -15 -5 -31 -22 -32 -34
-30 -34 6 0 23 -5 30 -19 30 -46 0 -160 -94 -161 -132 0 -20 -26 -24 -33 -5
-2 7 -8 8 -13 3 -5 -5 -4 -11 4 -13 19 -7 14 -23 -7 -23 -11 0 -43 -24 -71
-54 -28 -30 -62 -57 -76 -60 -26 -7 -31 -20 -12 -32 6 -4 19 2 29 14 10 14 29
22 47 22 16 0 50 11 76 25 26 14 56 25 67 25 10 0 19 7 19 15 0 10 10 15 30
15 25 0 30 4 30 25 0 27 9 32 28 13 10 -10 14 -8 18 10 4 12 11 22 18 22 17 0
84 67 113 114 15 22 33 46 42 53 19 15 10 15 -48 -1z"/>
<path d="M2923 5003 c-17 -6 -16 -43 1 -57 8 -6 28 -46 46 -88 41 -101 87
-152 136 -151 33 1 35 0 29 -26 -5 -23 -1 -29 20 -39 14 -7 33 -12 41 -12 9 0
28 -9 42 -21 36 -28 41 -7 8 36 -18 24 -34 34 -49 32 -16 -1 -23 4 -25 21 -2
12 1 22 7 22 21 0 11 43 -19 81 -17 21 -46 44 -65 50 -28 11 -32 15 -22 27 9
12 6 19 -15 36 -14 11 -31 31 -37 44 -6 12 -20 22 -30 22 -11 0 -21 7 -25 15
-5 15 -20 18 -43 8z m127 -109 c0 -17 -22 -14 -28 4 -2 7 3 12 12 12 9 0 16
-7 16 -16z m-8 -88 c-2 -5 -9 -1 -14 8 -5 9 -6 21 -2 28 9 14 25 -22 16 -36z"/>
<path d="M3429 4958 c-8 -43 -5 -91 8 -103 8 -9 15 -31 15 -50 0 -19 6 -38 13
-43 7 -4 20 -22 30 -41 9 -18 31 -48 48 -66 18 -18 37 -40 43 -50 15 -27 31
-29 37 -5 5 19 9 20 27 10 16 -9 21 -19 18 -43 -2 -24 1 -32 13 -32 17 0 49
-28 49 -43 0 -11 44 -42 59 -42 11 0 1 42 -22 86 -8 16 -18 48 -22 71 -4 24
-18 59 -31 78 -13 20 -24 39 -24 43 0 4 -18 24 -40 45 -22 20 -40 44 -40 52 0
18 -16 20 -27 2 -19 -30 -103 -49 -103 -23 0 9 8 12 24 9 20 -4 25 0 31 28 7
29 4 36 -26 61 -19 16 -41 35 -50 43 -14 13 -28 19 -30 13z m106 -208 c3 -6
-1 -13 -10 -16 -19 -8 -30 0 -20 15 8 14 22 14 30 1z m45 -44 c-14 -14 -24 0
-16 21 6 15 8 15 16 3 6 -9 5 -19 0 -24z"/>
<path d="M8114 4927 c-16 -18 -49 -45 -72 -61 -23 -17 -42 -37 -42 -46 0 -9
-11 -22 -24 -29 -13 -7 -37 -31 -52 -53 -16 -22 -36 -48 -46 -58 -9 -10 -19
-29 -23 -42 -6 -21 -23 -69 -46 -123 -16 -40 -20 -65 -11 -65 17 0 32 27 26
45 -6 15 -3 16 25 10 33 -7 57 6 124 69 24 22 27 29 17 41 -10 12 -9 15 8 15
11 0 25 7 33 16 18 22 -3 33 -66 36 l-50 1 43 4 c49 5 66 28 37 49 -14 11 -15
14 -4 15 8 1 31 3 52 4 39 4 49 -7 20 -23 -10 -6 -14 -16 -10 -26 10 -25 23
-19 48 22 13 20 26 39 30 42 3 3 9 15 13 27 5 17 1 26 -19 39 -14 9 -25 23
-25 30 0 20 29 29 50 16 16 -10 18 -6 16 30 0 23 -5 43 -11 44 -5 2 -24 -12
-41 -29z m-23 -98 c11 -11 18 -23 15 -27 -4 -3 -12 0 -18 6 -7 7 -22 12 -35
12 -14 0 -23 6 -23 15 0 22 37 18 61 -6z"/>
<path d="M7635 4829 c-22 -17 -59 -48 -83 -71 -33 -31 -40 -43 -31 -54 17 -20
1 -36 -31 -29 -29 6 -34 2 -100 -86 -14 -18 -36 -44 -50 -58 -27 -27 -90 -117
-90 -128 0 -4 -8 -24 -17 -45 l-18 -38 -145 5 c-247 9 -331 3 -373 -27 -15
-11 -35 -17 -44 -14 -27 11 -153 -37 -153 -57 0 -5 9 -11 21 -14 12 -3 18 -11
15 -19 -7 -19 -2 -18 52 11 26 14 59 25 74 25 15 0 30 5 33 10 3 6 14 10 24
10 10 0 30 9 44 20 23 19 40 20 240 20 119 0 227 4 242 10 23 9 27 7 36 -16 9
-25 11 -26 28 -10 14 13 41 16 139 16 66 0 123 4 127 9 3 6 27 13 53 16 66 9
83 15 77 26 -9 13 -62 11 -122 -5 -29 -8 -102 -16 -162 -17 -114 -4 -141 4
-141 41 0 20 30 50 51 50 8 0 43 25 77 55 35 30 70 55 77 55 19 0 95 97 95
121 0 12 10 23 25 29 15 6 25 17 25 29 0 10 7 24 15 31 18 15 20 51 3 68 -16
16 -2 28 15 14 17 -15 27 -6 27 25 0 29 -6 28 -55 -8z m-55 -108 c0 -15 -19
-23 -38 -16 -14 5 -14 7 -2 15 19 12 40 13 40 1z m-126 -167 c11 -29 7 -36
-19 -30 -17 4 -31 0 -45 -14 -11 -11 -25 -18 -30 -15 -11 7 20 45 37 45 7 0
13 7 13 15 0 20 36 19 44 -1z"/>
<path d="M3920 4833 c1 -15 25 -40 45 -47 28 -9 71 -43 64 -51 -4 -3 -18 0
-33 6 -41 19 -42 4 -2 -55 20 -30 36 -63 36 -73 0 -10 23 -39 51 -63 28 -25
67 -60 87 -79 53 -47 90 -65 107 -51 8 6 23 9 35 5 27 -9 27 20 0 35 -11 6
-20 17 -20 25 0 15 -29 28 -51 23 -10 -2 -14 8 -14 36 0 23 -5 41 -13 44 -7 2
-19 19 -27 38 -8 19 -34 48 -59 66 -25 17 -46 35 -46 39 0 14 -124 109 -142
109 -10 0 -18 -3 -18 -7z m157 -128 c14 -14 14 -18 -2 -35 -10 -11 -23 -20
-29 -20 -6 0 -2 7 8 15 19 14 19 15 1 35 -22 24 -2 28 22 5z m83 -110 c10 -12
10 -15 -4 -15 -9 0 -16 7 -16 15 0 8 2 15 4 15 2 0 9 -7 16 -15z m28 -68 c2
-15 -1 -27 -6 -27 -16 0 -44 38 -37 50 12 20 40 6 43 -23z"/>
<path d="M1265 4790 c-11 -17 -17 -1167 -6 -1174 4 -3 5 -28 3 -58 -9 -117 -7
-140 8 -149 49 -27 124 -59 136 -59 18 0 133 -57 151 -76 8 -8 21 -14 29 -14
21 0 94 -48 132 -86 18 -19 37 -34 41 -34 14 0 271 -258 271 -273 0 -8 23 -35
50 -61 29 -27 50 -56 50 -67 0 -12 8 -23 20 -26 12 -3 20 -14 20 -26 0 -40 24
-103 57 -150 27 -39 33 -55 28 -78 -6 -25 -3 -30 19 -39 14 -5 26 -14 26 -20
0 -5 14 -10 31 -10 26 0 30 -3 27 -22 -4 -29 -37 -36 -55 -13 -11 17 -13 17
-19 1 -16 -42 -16 -42 643 -39 345 2 638 3 651 3 68 -2 92 -6 92 -17 0 -7 6
-13 13 -13 7 0 17 -10 22 -22 13 -28 83 -84 92 -73 5 4 2 10 -4 12 -7 3 -13
13 -13 24 0 16 3 17 23 8 23 -10 54 -49 40 -49 -5 0 -15 -4 -22 -9 -12 -8 -11
-13 10 -30 27 -23 50 -26 67 -9 17 17 27 1 11 -18 -12 -15 -9 -20 21 -45 19
-16 37 -29 41 -29 4 0 11 -9 14 -20 3 -11 12 -20 20 -20 7 0 15 -7 19 -15 3
-8 12 -15 19 -15 8 0 20 -7 27 -15 14 -17 56 -20 65 -5 3 6 22 10 41 10 43 0
42 9 -3 38 -27 17 -38 20 -49 11 -11 -9 -16 -6 -23 15 -11 28 -75 79 -136 106
-22 10 -69 46 -104 80 -50 48 -69 60 -90 58 -20 -2 -26 1 -27 18 -2 28 -44 84
-72 95 -13 5 -37 9 -54 9 -25 0 -28 -2 -19 -14 26 -31 -48 -38 -205 -21 -64 7
-73 5 -83 -11 -6 -11 -11 -14 -11 -6 0 33 -26 40 -168 44 -110 3 -142 1 -142
-9 0 -18 -17 -16 -24 2 -8 21 -124 21 -132 0 -4 -8 -14 -15 -24 -15 -10 0 -20
7 -24 15 -9 24 -26 17 -41 -17 -8 -18 -14 -26 -15 -17 0 36 -29 44 -164 46
-186 3 -207 7 -229 44 -9 17 -15 35 -11 40 7 11 -90 206 -117 235 -10 11 -19
27 -19 36 0 17 -35 72 -88 136 -26 33 -37 40 -43 30 -7 -10 -13 -8 -31 10
l-22 22 22 0 c34 0 26 25 -20 62 -24 18 -49 38 -56 45 -7 7 -18 13 -23 13 -5
0 -12 12 -15 28 -8 33 -30 60 -66 78 -15 8 -47 32 -70 54 -27 25 -53 40 -69
40 -16 0 -40 13 -62 35 -20 19 -41 35 -48 35 -6 0 -37 15 -68 34 -32 19 -78
37 -106 42 -72 10 -105 46 -105 113 0 37 -4 53 -17 60 -16 9 -16 11 2 31 19
21 19 23 2 35 -19 14 -22 36 -7 51 11 11 14 148 7 289 -4 63 -2 112 6 132 10
29 8 35 -11 53 -16 15 -20 26 -14 38 17 33 22 83 10 102 -9 15 -9 24 1 44 9
17 12 45 7 93 -3 37 -6 73 -7 78 0 6 4 44 9 85 8 63 7 79 -7 100 -9 14 -18 39
-21 55 -4 24 -7 27 -15 15z m39 -1294 c-6 -16 -8 -17 -16 -2 -11 19 0 42 13
29 6 -6 7 -18 3 -27z m170 -137 c-7 -11 -44 -12 -44 -1 0 15 11 20 30 15 11
-3 17 -9 14 -14z m349 -193 c7 -17 -22 -31 -36 -17 -5 5 -6 14 -3 20 10 16 33
14 39 -3z m55 -59 c2 -10 -3 -17 -12 -17 -10 0 -16 9 -16 21 0 24 23 21 28 -4z"/>
<path d="M2893 4713 c-22 -8 -14 -33 10 -33 26 0 83 -25 92 -41 4 -5 15 -9 26
-9 10 0 19 -4 19 -8 0 -9 54 -42 69 -42 22 0 10 16 -26 35 -21 11 -42 25 -46
32 -4 7 -14 13 -20 13 -7 0 -21 9 -30 21 -10 11 -23 19 -30 16 -6 -2 -18 2
-25 10 -14 14 -19 15 -39 6z"/>
<path d="M5765 4658 c-87 -166 -245 -350 -330 -382 -18 -7 -16 -11 24 -44 106
-87 167 -153 225 -242 59 -91 88 -144 100 -182 9 -29 21 -21 44 27 68 140 222
331 315 391 20 13 37 28 37 34 0 5 -19 22 -43 38 -97 67 -210 204 -301 365
-15 26 -31 47 -35 47 -5 0 -21 -24 -36 -52z m94 -341 c28 -26 51 -54 51 -61 0
-7 -25 -37 -56 -66 l-57 -54 -59 62 -59 62 58 54 c32 31 61 54 65 53 3 -1 29
-24 57 -50z"/>
<path d="M8610 4669 c-14 -12 -34 -27 -44 -35 -37 -25 -9 -24 47 2 32 14 57
32 57 40 0 20 -31 17 -60 -7z"/>
<path d="M8331 4619 c-16 -22 -20 -34 -12 -42 12 -12 50 28 51 56 0 26 -13 21
-39 -14z"/>
<path d="M3162 4558 c7 -19 38 -22 38 -4 0 10 -9 16 -21 16 -12 0 -19 -5 -17
-12z"/>
<path d="M8420 4551 c0 -32 -102 -44 -119 -13 -9 16 -10 16 -16 -1 -11 -27 13
-49 47 -42 21 5 35 2 49 -11 28 -25 116 -38 269 -38 172 0 197 3 240 25 19 11
42 19 52 19 9 0 20 4 23 10 10 16 -42 23 -133 16 -48 -3 -103 -5 -122 -4 -92
7 -190 2 -202 -10 -6 -6 -27 -12 -45 -12 -43 0 -55 26 -25 51 27 21 28 29 2
29 -13 0 -20 -7 -20 -19z"/>
<path d="M3253 4543 c-42 -8 -17 -43 30 -43 24 0 28 4 25 22 -3 24 -17 29 -55
21z"/>
<path d="M2642 4514 c-19 -9 -4 -24 23 -24 13 0 39 -6 57 -14 94 -40 318 -53
388 -22 33 14 33 15 9 16 -16 0 -32 9 -41 21 -17 26 -93 34 -93 9 0 -9 13 -17
35 -21 32 -6 32 -6 -14 -8 -39 -1 -51 3 -66 22 -18 22 -25 23 -152 25 -73 0
-139 -1 -146 -4z"/>
<path d="M3172 4481 c-11 -7 -11 -9 1 -14 19 -7 57 2 57 14 0 11 -41 11 -58 0z"/>
<path d="M3415 4450 c3 -5 15 -10 26 -10 11 0 22 -6 25 -14 3 -7 24 -16 48
-19 23 -3 50 -9 59 -13 13 -5 16 -2 11 10 -3 9 -24 20 -45 26 -21 5 -56 15
-78 20 -21 6 -41 10 -45 10 -4 0 -4 -4 -1 -10z"/>
<path d="M8096 4441 c-33 -9 -61 -22 -64 -28 -6 -21 45 -15 104 12 84 39 67
46 -40 16z"/>
<path d="M3627 4409 c-29 -17 -19 -29 26 -29 61 0 87 -9 87 -31 0 -20 16 -24
39 -10 11 7 9 12 -10 24 -48 31 -124 56 -142 46z"/>
<path d="M4303 4403 c-20 -8 -15 -21 10 -25 31 -4 29 -40 -3 -49 -14 -4 -71
-7 -127 -8 -56 -1 -104 -5 -108 -10 -7 -13 15 -18 108 -26 77 -7 92 -16 65
-43 -25 -25 14 -12 57 19 l43 31 248 1 c155 1 248 6 250 12 11 35 -160 58
-215 29 -17 -9 -61 -14 -127 -14 -111 0 -145 14 -158 65 -6 24 -17 29 -43 18z"/>
<path d="M7890 4395 c-19 -7 -48 -20 -64 -28 l-28 -15 30 -16 c17 -9 38 -16
47 -16 8 0 15 -4 15 -9 0 -6 11 -16 24 -23 109 -60 108 -60 152 -53 37 5 43 4
38 -9 -3 -9 -2 -16 4 -16 5 0 12 -9 15 -20 4 -14 14 -20 35 -20 16 0 35 -7 42
-16 10 -11 23 -14 52 -9 29 5 38 4 38 -8 0 -11 17 -15 77 -16 42 -1 80 -4 85
-7 4 -3 16 -1 25 5 17 9 17 10 0 16 -9 4 -27 5 -38 2 -29 -8 -49 2 -49 24 0
14 7 19 29 19 16 0 31 -6 35 -15 6 -17 46 -21 46 -5 0 6 -10 15 -22 21 -29 13
-62 32 -79 46 -27 20 -64 23 -75 5 -7 -11 -23 -17 -43 -16 -40 1 -49 11 -26
28 16 12 17 16 6 30 -7 9 -22 16 -33 16 -15 0 -19 -6 -17 -28 5 -39 -31 -77
-62 -67 l-23 8 22 17 c32 26 28 36 -25 55 -72 25 -90 28 -108 17 -12 -6 -29
-6 -49 1 -72 23 -77 27 -74 49 2 18 12 24 46 31 46 9 54 21 20 31 -27 7 -23 7
-68 -9z m145 -125 c3 -5 -3 -10 -14 -10 -12 0 -21 5 -21 10 0 6 6 10 14 10 8
0 18 -4 21 -10z"/>
<path d="M3850 4346 c-9 -12 -6 -16 22 -21 18 -3 60 -5 93 -3 53 3 57 5 35 14
-45 20 -136 26 -150 10z"/>
<path d="M7737 4353 c-12 -11 -8 -23 8 -23 8 0 15 7 15 15 0 16 -12 20 -23 8z"/>
<path d="M4867 4290 c-25 -24 -8 -33 51 -27 26 3 39 3 29 0 -25 -7 -16 -25 16
-34 17 -5 30 -2 38 7 6 8 18 14 25 14 35 0 8 17 -58 38 -85 26 -78 26 -101 2z"/>
<path d="M3550 4290 c-8 -5 -29 -10 -47 -10 -17 0 -35 -4 -38 -10 -10 -16 -55
-12 -55 5 0 8 -5 15 -11 15 -17 0 -113 -32 -124 -41 -5 -5 -19 -9 -30 -9 -29
0 -37 -10 -22 -28 10 -13 8 -14 -16 -8 -32 8 -122 -29 -111 -45 3 -5 10 -7 15
-4 5 4 17 2 26 -4 16 -9 16 -11 -6 -19 -21 -8 -17 -10 31 -15 66 -8 118 0 118
19 0 19 20 28 33 15 13 -13 64 -15 72 -2 3 6 -3 15 -12 20 -13 8 -4 9 38 5 46
-5 57 -4 62 10 4 9 15 16 26 16 11 0 41 10 68 21 l48 21 -30 13 -30 13 28 7
c15 4 27 11 27 16 0 12 -41 11 -60 -1z"/>
<path d="M3628 4268 c9 -9 15 -9 24 0 9 9 7 12 -12 12 -19 0 -21 -3 -12 -12z"/>
<path d="M7330 4241 c0 -6 4 -11 9 -11 5 0 25 -15 46 -34 48 -44 92 -63 108
-47 17 17 29 13 22 -9 -5 -16 0 -23 28 -35 18 -7 39 -21 47 -29 7 -9 21 -16
31 -16 11 0 36 -9 56 -20 20 -10 57 -22 82 -26 25 -4 57 -15 70 -25 25 -20 95
-26 120 -10 11 7 7 14 -20 30 -19 12 -39 21 -44 21 -6 0 -21 14 -35 30 -14 17
-30 30 -36 30 -7 0 -14 7 -18 15 -7 19 -33 19 -43 0 -7 -12 -15 -7 -38 24 -24
32 -38 41 -72 46 -24 3 -49 13 -57 21 -8 8 -32 14 -54 14 -24 0 -45 6 -52 15
-9 11 -28 15 -64 14 -28 -1 -59 1 -68 6 -11 4 -18 3 -18 -4z m351 -130 c18
-15 21 -22 13 -31 -9 -9 -22 -6 -53 12 -22 12 -41 26 -41 31 0 15 59 6 81 -12z"/>
<path d="M4116 4225 c-4 -10 -20 -15 -52 -15 -37 0 -47 -4 -51 -19 -4 -14 -13
-19 -36 -19 -37 1 -127 -30 -127 -43 0 -5 -7 -9 -16 -9 -19 0 -106 -56 -117
-77 -5 -7 -26 -21 -48 -29 -42 -17 -49 -28 -23 -38 32 -12 134 13 134 34 0 5
-8 11 -17 13 -10 3 10 2 44 0 48 -5 68 -2 87 11 14 9 33 16 43 16 10 0 33 9
51 20 17 11 53 25 79 32 62 15 89 42 96 96 5 39 3 42 -18 42 -13 0 -25 -7 -29
-15z"/>
<path d="M5046 4221 c-17 -18 -16 -20 8 -38 64 -45 111 -98 108 -121 -2 -13 3
-31 11 -40 27 -30 30 -66 8 -94 -23 -28 -27 -53 -11 -63 6 -3 10 -15 10 -26 0
-10 3 -19 6 -19 11 0 44 42 44 55 0 7 7 18 15 25 38 31 -4 204 -63 260 -37 35
-99 80 -110 80 -5 0 -17 -9 -26 -19z"/>
<path d="M4198 4205 c-7 -32 4 -32 19 0 9 20 8 25 -2 25 -7 0 -15 -11 -17 -25z"/>
<path d="M6467 4203 c-4 -3 -7 -19 -7 -35 0 -15 -4 -28 -9 -28 -5 0 -7 9 -4
20 8 29 -10 24 -35 -10 -25 -33 -27 -47 -10 -52 6 -2 9 -12 5 -21 -4 -10 -12
-14 -22 -11 -17 7 -31 -19 -20 -37 6 -8 10 -8 16 2 15 25 19 2 5 -32 -8 -19
-16 -47 -18 -64 -2 -24 1 -30 15 -29 15 2 16 -4 11 -32 -7 -41 8 -64 43 -64
33 0 40 26 14 61 -20 27 -21 37 -15 117 7 87 8 91 64 159 23 28 -8 81 -33 56z"/>
<path d="M3020 4120 c0 -13 30 -13 50 0 11 7 7 10 -17 10 -18 0 -33 -4 -33
-10z"/>
<path d="M1635 4062 c-51 -8 -65 -14 -99 -49 -41 -42 -57 -82 -57 -145 -2
-109 34 -202 98 -257 91 -77 139 -114 174 -136 20 -13 50 -36 65 -51 16 -15
46 -39 67 -55 41 -30 156 -154 221 -238 22 -28 43 -51 48 -51 4 0 8 -8 8 -17
0 -10 19 -43 40 -73 22 -30 50 -75 62 -100 11 -25 21 -46 22 -47 0 0 19 -4 40
-8 l39 -8 -7 29 c-4 16 -20 46 -37 66 -16 20 -29 39 -29 43 0 3 -12 18 -27 34
-28 28 -48 54 -60 81 -12 26 -40 56 -149 159 -39 37 -63 85 -47 94 21 11 75
-18 129 -70 34 -32 77 -71 96 -88 19 -16 45 -44 57 -61 28 -38 69 -63 79 -47
4 6 15 7 27 2 19 -7 19 -8 -2 -8 -21 -1 -35 -31 -14 -31 5 0 17 -13 28 -29 10
-16 41 -47 68 -69 28 -22 74 -63 102 -91 29 -28 55 -51 57 -51 3 0 18 -14 35
-31 30 -30 55 -34 57 -11 3 25 5 26 15 9 7 -13 7 -22 0 -31 -14 -16 18 -40 99
-73 85 -35 178 -32 255 8 33 17 69 39 79 48 34 29 57 96 58 175 2 79 -4 94
-60 154 -29 31 -32 32 -114 32 -77 -1 -85 -3 -114 -29 -40 -36 -46 -54 -28
-80 21 -30 34 -26 34 9 0 32 23 42 34 14 4 -11 13 -14 29 -10 33 8 97 -12 119
-37 13 -16 17 -31 12 -56 -4 -27 0 -39 21 -61 26 -28 27 -28 7 -39 -16 -8 -21
-7 -26 4 -8 22 -23 18 -48 -10 -35 -40 -105 -54 -214 -42 -41 4 -107 38 -156
79 -15 13 -41 34 -59 48 -17 13 -54 48 -83 78 -28 30 -57 61 -64 68 -13 14
-20 16 -52 18 -8 1 -15 8 -15 16 0 23 -26 54 -67 79 -21 12 -38 26 -38 31 0 5
-8 11 -19 15 -10 3 -38 24 -62 46 -24 22 -66 52 -94 66 -27 14 -68 40 -90 58
-22 17 -60 40 -85 50 -25 11 -58 32 -75 47 -33 31 -55 36 -55 13 0 -18 -5 -19
-32 -4 -20 11 -20 12 -4 24 12 9 14 15 5 20 -6 4 -15 2 -19 -5 -4 -7 -13 -9
-19 -5 -9 5 -9 10 -1 20 20 24 -7 57 -85 105 -114 70 -165 140 -166 228 -1 65
17 111 53 136 27 19 103 21 118 4 6 -7 29 -33 52 -58 l41 -45 -6 38 c-3 20 -2
37 4 37 14 0 11 34 -7 56 -13 16 -16 17 -21 4 -4 -10 -10 -4 -18 20 -11 33
-15 35 -61 40 -27 3 -59 4 -69 2z m15 -462 c0 -5 -9 -10 -20 -10 -11 0 -20 5
-20 10 0 6 9 10 20 10 11 0 20 -4 20 -10z m320 -228 c0 -13 -12 -22 -22 -16
-10 6 -1 24 13 24 5 0 9 -4 9 -8z m380 -252 c18 -25 19 -30 6 -30 -9 0 -16 5
-16 10 0 6 -9 10 -20 10 -13 0 -20 7 -20 20 0 29 26 24 50 -10z m138 -142 c-6
-18 -28 -21 -28 -4 0 9 7 16 16 16 9 0 14 -5 12 -12z"/>
<path d="M9850 4041 c-7 -13 -7 -22 0 -26 5 -3 10 -15 10 -27 0 -17 4 -19 26
-14 14 4 46 4 71 0 37 -5 48 -13 70 -45 23 -35 25 -46 20 -102 -4 -34 -10 -72
-13 -85 -5 -18 -3 -21 10 -16 12 5 16 0 16 -20 0 -29 -11 -33 -34 -11 -21 22
-29 19 -49 -17 -19 -34 -96 -98 -119 -98 -7 0 -22 -12 -35 -26 -26 -31 -113
-94 -130 -94 -6 0 -13 -4 -15 -9 -1 -4 -29 -22 -61 -40 -32 -18 -75 -44 -96
-59 -135 -95 -271 -196 -303 -224 -20 -18 -62 -55 -94 -83 -70 -60 -91 -80
-125 -120 -14 -17 -37 -37 -51 -45 -15 -8 -46 -34 -70 -56 -70 -66 -119 -86
-221 -92 l-89 -5 -54 57 c-52 55 -54 60 -54 112 0 50 2 55 28 64 15 6 35 15
44 20 23 13 55 13 63 0 3 -5 16 -10 27 -10 11 0 27 -8 34 -17 12 -16 15 -16
24 -3 13 20 12 26 -2 42 -7 8 -20 27 -28 43 -15 29 -18 30 -100 32 l-84 3 -47
-46 c-43 -42 -47 -51 -54 -109 -12 -111 51 -245 115 -245 14 0 35 -7 48 -15
13 -10 53 -18 100 -21 68 -5 81 -3 104 15 14 12 36 21 48 21 38 0 83 31 200
139 108 99 144 142 106 128 -8 -3 -18 -1 -22 4 -4 7 6 9 27 7 35 -3 35 -3 22
45 -4 11 0 17 11 17 9 0 16 -8 16 -20 0 -11 2 -20 5 -20 3 0 31 26 63 58 119
116 188 180 227 209 22 17 58 47 79 67 23 21 50 36 65 36 24 0 24 0 5 -22 -10
-13 -25 -27 -31 -31 -7 -4 -13 -15 -13 -24 0 -9 -29 -43 -63 -77 -62 -59 -79
-83 -82 -118 -1 -9 -30 -48 -64 -86 -33 -38 -61 -75 -61 -83 0 -13 -45 -87
-72 -119 -20 -23 -58 -80 -58 -87 0 -4 -7 -15 -17 -25 -9 -10 -13 -21 -10 -24
4 -4 30 18 59 48 86 89 108 115 108 132 0 9 5 16 10 16 6 0 13 8 17 18 8 22
59 90 92 122 28 27 52 62 86 122 43 79 243 284 369 380 27 21 55 46 62 57 8
11 22 17 31 15 23 -6 106 73 134 126 12 22 25 43 30 46 13 8 11 99 -3 129 -9
19 -9 28 0 37 17 17 15 55 -3 62 -8 3 -15 14 -15 24 0 21 -46 69 -56 59 -4 -3
-16 0 -28 8 -12 9 -44 15 -83 15 -51 0 -64 -3 -73 -19z m110 -10 c23 -7 23 -8
-13 -15 -41 -8 -68 1 -46 15 16 10 24 10 59 0z m130 -102 c0 -18 -2 -19 -15
-9 -8 7 -15 16 -15 21 0 5 7 9 15 9 9 0 15 -9 15 -21z m-420 -549 c0 -12 -10
-21 -31 -25 -42 -9 -46 -1 -14 29 30 27 45 26 45 -4z m-200 -255 c0 -8 -7 -15
-15 -15 -8 0 -15 7 -15 15 0 8 7 15 15 15 8 0 15 -7 15 -15z m-1016 -114 c3
-5 0 -11 -8 -14 -15 -6 -26 1 -26 15 0 11 27 10 34 -1z m416 -266 c0 -16 -6
-25 -15 -25 -9 0 -15 9 -15 25 0 16 6 25 15 25 9 0 15 -9 15 -25z m-420 -3 c0
-13 -12 -22 -22 -16 -10 6 -1 24 13 24 5 0 9 -4 9 -8z m152 -70 c-27 -4 -37 2
-27 17 4 8 13 7 28 -1 l22 -13 -23 -3z"/>
<path d="M9781 3971 c-11 -20 -6 -45 12 -69 7 -9 15 -6 33 13 29 32 31 49 4
40 -14 -4 -20 -2 -20 9 0 24 -18 28 -29 7z"/>
<path d="M6640 3913 c-14 -18 -19 -35 -15 -50 4 -17 0 -25 -12 -30 -9 -4 -19
-1 -21 5 -4 12 -64 17 -74 7 -11 -11 18 -56 39 -61 22 -6 93 29 93 45 0 5 12
20 27 35 23 23 25 30 15 51 -15 32 -25 31 -52 -2z"/>
<path d="M4915 3910 c-15 -25 8 -66 56 -97 41 -28 58 -33 109 -33 56 0 60 2
66 25 4 14 4 29 0 32 -3 3 -35 6 -71 7 -51 1 -68 6 -78 20 -9 13 -20 17 -32
13 -12 -5 -16 -3 -12 7 9 24 -25 47 -38 26z"/>
<path d="M9884 3276 c-18 -6 -60 -39 -94 -73 -34 -35 -70 -63 -80 -63 -10 0
-30 -19 -45 -42 -16 -24 -47 -59 -70 -80 -22 -20 -54 -56 -71 -79 -16 -24 -37
-54 -48 -66 -30 -35 -96 -160 -96 -182 0 -7 -11 -27 -25 -45 -14 -18 -25 -36
-25 -40 0 -4 -9 -19 -20 -34 -10 -15 -22 -42 -25 -61 -3 -19 -8 -38 -10 -41
-5 -7 23 -70 30 -70 9 0 65 116 65 134 0 12 9 27 20 34 11 7 20 21 20 32 0 11
4 20 9 20 5 0 12 13 16 30 4 16 17 45 31 65 13 20 24 38 24 41 0 3 11 20 25
38 15 20 22 39 19 53 -6 22 10 40 21 23 9 -14 25 -12 25 3 0 7 11 29 25 49 14
20 25 52 25 70 1 33 1 33 14 9 13 -23 13 -22 92 58 43 45 84 81 89 81 6 0 26
16 45 35 19 19 39 35 44 35 6 1 25 12 41 25 28 23 28 25 8 25 -12 0 -28 6 -35
13 -10 11 -20 11 -44 3z"/>
<path d="M2335 2810 c-10 -16 39 -87 101 -147 44 -43 61 -53 87 -52 l32 1 -32
14 c-18 7 -39 26 -47 41 -15 29 -113 146 -127 151 -4 2 -10 -2 -14 -8z"/>
<path d="M7953 2387 c-45 -17 -49 -25 -21 -36 14 -5 28 -17 31 -25 8 -19 39
-20 92 -1 25 9 43 11 51 5 12 -10 143 -17 259 -13 39 2 248 1 465 -1 217 -1
400 1 406 6 7 5 23 4 38 -2 33 -12 45 9 26 45 -18 33 -99 52 -86 20 4 -11 -1
-15 -18 -15 -14 0 -31 -3 -39 -6 -8 -3 -21 2 -30 10 -18 18 -39 20 -53 6 -8
-8 -15 -6 -24 5 -17 20 -54 20 -46 0 4 -11 -2 -15 -28 -15 -18 0 -39 7 -46 15
-16 20 -64 20 -57 1 9 -24 -20 -26 -36 -3 -14 21 -16 22 -60 6 -31 -11 -49
-13 -56 -6 -12 12 -322 17 -338 5 -6 -5 -14 -5 -18 2 -10 15 -55 12 -61 -5 -7
-18 -44 -20 -44 -2 0 17 -262 20 -307 4z"/>
<path d="M7880 2325 c-7 -8 -17 -15 -23 -15 -12 0 -119 -87 -130 -106 -9 -16
12 -66 28 -68 6 0 11 16 13 37 3 38 22 43 22 6 0 -20 1 -20 31 -2 17 10 38 27
48 38 9 11 29 28 44 38 37 24 43 43 22 67 -22 24 -38 25 -55 5z"/>
<path d="M7666 2155 c-3 -8 -11 -15 -18 -15 -7 0 -23 -11 -35 -24 -17 -18 -20
-26 -10 -36 10 -10 7 -11 -11 -5 -24 7 -87 -30 -77 -46 11 -17 34 -9 41 13 6
22 7 21 26 -5 11 -15 25 -27 32 -27 15 0 39 47 31 61 -4 5 10 9 29 9 40 0 51
11 37 37 -5 10 -12 26 -15 36 -7 21 -22 22 -30 2z"/>
<path d="M7479 1994 c-8 -10 -21 -13 -36 -9 -25 6 -83 -29 -83 -51 0 -6 -7
-15 -16 -18 -11 -4 -14 -13 -10 -31 5 -19 2 -25 -9 -25 -11 0 -14 6 -9 25 4
15 2 25 -4 25 -18 0 -62 -23 -62 -32 0 -4 -13 -8 -28 -8 -32 0 -112 -36 -112
-50 0 -6 -8 -10 -19 -10 -10 0 -24 -7 -31 -15 -7 -8 -20 -15 -30 -15 -10 0
-23 -6 -29 -14 -6 -7 -25 -16 -41 -20 -17 -3 -30 -12 -30 -19 0 -19 -32 -47
-53 -47 -9 0 -17 7 -17 15 0 8 -3 15 -7 15 -12 0 -76 -24 -100 -38 -12 -7 -33
-12 -46 -12 -14 0 -30 -7 -37 -15 -7 -8 -22 -15 -34 -15 -40 0 -50 -17 -14
-25 l33 -7 -28 -10 c-24 -9 -32 -7 -52 12 -22 21 -24 21 -56 5 -21 -11 -44
-15 -67 -11 -20 3 -49 -1 -70 -9 -19 -8 -55 -15 -80 -15 -26 0 -64 -9 -88 -21
-29 -14 -49 -18 -61 -12 -22 11 -723 10 -741 -1 -8 -4 -19 0 -30 12 -19 23
-142 43 -142 24 0 -6 5 -14 10 -17 6 -4 10 -16 8 -28 -3 -20 4 -23 71 -36 67
-13 74 -13 83 2 13 23 38 21 38 -3 0 -18 7 -20 63 -20 34 0 99 -7 145 -15 87
-15 202 -13 340 5 40 6 95 10 120 10 26 0 56 6 67 14 12 8 48 14 92 14 40 1
83 7 95 13 13 7 30 12 39 11 9 -2 22 4 28 12 11 14 15 14 36 0 21 -13 30 -14
62 -3 21 7 43 17 50 22 7 5 25 6 40 3 18 -4 42 0 68 14 21 11 45 20 51 20 12
0 87 30 179 71 22 9 56 20 75 24 19 4 45 16 57 28 18 16 25 18 37 8 11 -10 16
-9 23 2 4 8 18 19 29 25 14 7 24 25 28 51 8 52 23 60 50 26 l22 -27 49 16 c26
9 64 29 84 44 20 15 45 33 56 39 11 7 50 31 87 54 37 23 65 45 62 50 -9 16
-90 10 -105 -7z m-435 -240 c9 -3 16 -10 16 -16 0 -14 -43 -5 -48 10 -4 13 7
15 32 6z"/>
<path d="M4220 1950 c0 -5 9 -14 20 -20 24 -13 27 -40 5 -40 -19 0 -67 29 -78
47 -10 17 -37 17 -37 1 0 -11 23 -28 100 -73 10 -6 25 -17 33 -24 9 -7 22 -9
28 -5 7 4 17 1 23 -7 17 -21 223 -122 235 -115 5 4 8 13 4 21 -4 11 3 15 25
15 26 0 31 -5 37 -30 10 -47 97 -82 111 -46 7 19 28 26 44 16 11 -7 11 -11 0
-24 -11 -14 -10 -20 5 -36 10 -11 28 -20 40 -20 13 0 48 -11 79 -25 31 -14 71
-25 89 -25 18 0 45 -7 61 -15 48 -25 158 -13 164 18 2 11 -3 17 -15 17 -16 0
-75 17 -224 65 -54 17 -95 19 -104 5 -3 -5 -15 -10 -26 -10 -10 0 -19 5 -19
10 0 6 6 10 14 10 8 0 17 4 21 10 7 12 -71 50 -104 50 -14 0 -35 7 -45 15 -11
8 -27 15 -37 15 -9 0 -43 13 -75 30 -32 16 -67 30 -76 30 -9 0 -21 6 -25 13
-15 26 -145 83 -162 72 -6 -3 -14 1 -17 9 -3 8 -23 24 -45 35 -45 24 -49 25
-49 11z m210 -116 c0 -11 -8 -14 -27 -12 -39 4 -42 28 -4 28 21 0 31 -5 31
-16z"/>
</g>
</svg>
